<?xml version="1.0" encoding="UTF-8"?>
<svg xmlns="http://www.w3.org/2000/svg" xmlns:xlink="http://www.w3.org/1999/xlink" width="1050px" height="23px" viewBox="0 0 1050 23" version="1.1">
<g id="surface1">
<path style=" stroke:none;fill-rule:nonzero;fill:rgb(94.509804%,94.509804%,94.509804%);fill-opacity:1;" d="M 1050 23 C 1041.78125 23 1037.488281 18.398438 1034.019531 14.699219 C 1030.921875 11.398438 1028.628906 9 1023.800781 9 C 1018.871094 9 1016.671875 11.398438 1013.570312 14.699219 C 1010.101562 18.398438 1005.808594 23 997.589844 23 C 989.375 23 985.082031 18.398438 981.613281 14.699219 C 978.507812 11.398438 976.226562 9 971.386719 9 C 966.546875 9 964.265625 11.398438 961.160156 14.699219 C 957.691406 18.398438 953.398438 23 945.183594 23 C 936.964844 23 932.675781 18.398438 929.203125 14.699219 C 926.101562 11.398438 923.816406 9 918.976562 9 C 914.046875 9 911.855469 11.398438 908.753906 14.699219 C 905.28125 18.398438 900.992188 23 892.773438 23 C 884.558594 23 880.265625 18.398438 876.796875 14.699219 C 873.691406 11.398438 871.410156 9 866.570312 9 C 861.640625 9 859.449219 11.398438 856.34375 14.699219 C 852.507812 18.398438 848.21875 23 840 23 C 831.78125 23 827.492188 18.398438 824.023438 14.699219 C 820.917969 11.398438 818.636719 9 813.796875 9 C 808.863281 9 806.675781 11.398438 803.570312 14.699219 C 800.101562 18.398438 795.808594 23 787.589844 23 C 779.375 23 775.082031 18.398438 771.613281 14.699219 C 768.507812 11.398438 766.226562 9 761.386719 9 C 756.457031 9 754.265625 11.398438 751.160156 14.699219 C 747.507812 18.398438 743.21875 23 735 23 C 726.78125 23 722.492188 18.398438 719.023438 14.699219 C 715.917969 11.398438 713.636719 9 708.796875 9 C 703.863281 9 701.675781 11.398438 698.570312 14.699219 C 695.101562 18.398438 690.808594 23 682.589844 23 C 674.375 23 670.082031 18.398438 666.613281 14.699219 C 663.507812 11.398438 661.226562 9 656.386719 9 C 651.546875 9 649.265625 11.398438 646.160156 14.699219 C 642.601562 18.398438 638.21875 23 630 23 C 621.78125 23 617.492188 18.398438 614.023438 14.699219 C 610.917969 11.398438 608.636719 9 603.796875 9 C 598.863281 9 596.675781 11.398438 593.570312 14.699219 C 590.101562 18.398438 585.808594 23 577.589844 23 C 569.375 23 565.082031 18.398438 561.613281 14.699219 C 558.507812 11.398438 556.226562 9 551.386719 9 C 546.457031 9 544.265625 11.398438 541.160156 14.699219 C 537.691406 18.398438 533.398438 23 525.183594 23 C 516.964844 23 512.675781 18.398438 509.203125 14.699219 C 506.101562 11.398438 503.816406 9 498.976562 9 C 494.140625 9 491.855469 11.398438 488.753906 14.699219 C 485.28125 18.398438 480.992188 23 472.773438 23 C 464.558594 23 460.265625 18.398438 456.796875 14.699219 C 453.691406 11.398438 451.410156 9 446.570312 9 C 441.640625 9 439.449219 11.398438 436.34375 14.699219 C 432.875 18.398438 428.582031 23 420.363281 23 C 412.148438 23 407.855469 18.398438 404.386719 14.699219 C 401.28125 11.398438 399 9 394.160156 9 C 389.230469 9 387.039062 11.398438 383.933594 14.699219 C 380.464844 18.398438 376.175781 23 367.957031 23 C 359.738281 23 355.449219 18.398438 351.976562 14.699219 C 348.875 11.398438 346.589844 9 341.753906 9 C 336.820312 9 334.628906 11.398438 331.527344 14.699219 C 328.058594 18.398438 323.765625 23 315.546875 23 C 307.328125 23 303.039062 18.398438 299.570312 14.699219 C 296.464844 11.398438 294.183594 9 289.34375 9 C 284.503906 9 282.222656 11.398438 279.117188 14.699219 C 275.648438 18.398438 271.355469 23 263.140625 23 C 254.921875 23 250.628906 18.398438 247.160156 14.699219 C 244.058594 11.398438 241.773438 9 236.933594 9 C 232.003906 9 229.8125 11.398438 226.710938 14.699219 C 223.238281 18.398438 218.949219 23 210.730469 23 C 202.511719 23 198.222656 18.398438 194.753906 14.699219 C 191.648438 11.398438 189.363281 9 184.527344 9 C 179.597656 9 177.402344 11.398438 174.300781 14.699219 C 170.828125 18.398438 166.539062 23 158.320312 23 C 150.105469 23 145.8125 18.398438 142.34375 14.699219 C 139.238281 11.398438 136.957031 9 132.117188 9 C 127.1875 9 124.996094 11.398438 121.890625 14.699219 C 117.601562 18.398438 113.21875 23 105 23 C 96.78125 23 92.492188 18.398438 89.023438 14.699219 C 85.917969 11.398438 83.636719 9 78.796875 9 C 73.863281 9 71.675781 11.398438 68.570312 14.699219 C 65.101562 18.398438 60.808594 23 52.589844 23 C 44.375 23 40.082031 18.398438 36.613281 14.699219 C 33.417969 11.398438 31.136719 9 26.296875 9 C 21.363281 9 19.175781 11.398438 16.070312 14.699219 C 12.507812 18.398438 8.21875 23 0 23 L 0 14 C 4.929688 14 7.121094 11.601562 10.226562 8.300781 C 13.695312 4.601562 17.988281 0 26.296875 0 C 34.511719 0 38.804688 4.601562 42.273438 8.300781 C 45.378906 11.601562 47.660156 14 52.5 14 C 57.429688 14 59.621094 11.601562 62.726562 8.300781 C 66.195312 4.601562 70.578125 0 78.796875 0 C 87.011719 0 91.304688 4.601562 94.773438 8.300781 C 97.878906 11.601562 100.160156 14 105 14 C 109.929688 14 112.121094 11.601562 115.226562 8.300781 C 118.695312 4.601562 122.988281 0 131.203125 0 C 139.421875 0 143.714844 4.601562 147.183594 8.300781 C 150.285156 11.601562 152.570312 14 157.410156 14 C 162.339844 14 164.53125 11.601562 167.636719 8.300781 C 171.105469 4.601562 175.394531 0 183.613281 0 C 191.828125 0 196.121094 4.601562 199.589844 8.300781 C 202.695312 11.601562 204.976562 14 209.816406 14 C 214.746094 14 216.9375 11.601562 220.042969 8.300781 C 223.511719 4.601562 227.804688 0 236.023438 0 C 244.238281 0 248.53125 4.601562 252 8.300781 C 255.105469 11.601562 257.386719 14 262.226562 14 C 267.15625 14 269.347656 11.601562 272.453125 8.300781 C 275.921875 4.601562 280.214844 0 288.429688 0 C 296.648438 0 300.9375 4.601562 304.410156 8.300781 C 307.511719 11.601562 309.796875 14 314.636719 14 C 319.566406 14 321.757812 11.601562 324.859375 8.300781 C 328.328125 4.601562 332.621094 0 340.839844 0 C 349.058594 0 353.347656 4.601562 356.816406 8.300781 C 359.921875 11.601562 362.203125 14 367.042969 14 C 371.882812 14 374.164062 11.601562 377.269531 8.300781 C 380.738281 4.601562 385.03125 0 393.246094 0 C 401.464844 0 405.757812 4.601562 409.226562 8.300781 C 412.328125 11.601562 414.613281 14 419.453125 14 C 424.382812 14 426.574219 11.601562 429.679688 8.300781 C 433.148438 4.601562 437.4375 0 445.65625 0 C 453.875 0 458.164062 4.601562 461.636719 8.300781 C 464.738281 11.601562 467.023438 14 471.859375 14 C 476.789062 14 478.984375 11.601562 482.085938 8.300781 C 485.558594 4.601562 489.847656 0 498.066406 0 C 506.28125 0 510.574219 4.601562 514.042969 8.300781 C 517.148438 11.601562 519.429688 14 524.269531 14 C 529.199219 14 531.390625 11.601562 534.496094 8.300781 C 537.964844 4.601562 542.257812 0 550.472656 0 C 558.691406 0 562.984375 4.601562 566.453125 8.300781 C 569.558594 11.601562 571.839844 14 576.679688 14 C 581.609375 14 583.800781 11.601562 586.902344 8.300781 C 590.375 4.601562 594.664062 0 602.882812 0 C 611.101562 0 615.390625 4.601562 618.859375 8.300781 C 621.964844 11.601562 624.246094 14 629.085938 14 C 634.015625 14 636.210938 11.601562 639.3125 8.300781 C 642.78125 4.601562 647.074219 0 655.289062 0 C 663.507812 0 667.800781 4.601562 671.269531 8.300781 C 674.375 11.601562 676.65625 14 681.496094 14 C 686.425781 14 688.617188 11.601562 691.722656 8.300781 C 695.191406 4.601562 699.484375 0 707.699219 0 C 715.917969 0 720.210938 4.601562 723.679688 8.300781 C 726.78125 11.601562 729.066406 14 733.902344 14 C 738.835938 14 741.027344 11.601562 744.128906 8.300781 C 748.695312 4.601562 752.988281 0 761.296875 0 C 769.511719 0 773.804688 4.601562 777.273438 8.300781 C 780.378906 11.601562 782.660156 14 787.5 14 C 792.339844 14 794.621094 11.601562 797.726562 8.300781 C 801.195312 4.601562 805.488281 0 813.703125 0 C 821.921875 0 826.214844 4.601562 829.683594 8.300781 C 832.785156 11.601562 835.070312 14 839.910156 14 C 844.746094 14 847.03125 11.601562 850.136719 8.300781 C 853.695312 4.601562 857.988281 0 866.296875 0 C 874.605469 0 878.804688 4.601562 882.273438 8.300781 C 885.378906 11.601562 887.660156 14 892.5 14 C 897.339844 14 899.621094 11.601562 902.726562 8.300781 C 906.195312 4.601562 910.488281 0 918.703125 0 C 926.921875 0 931.214844 4.601562 934.683594 8.300781 C 937.785156 11.601562 940.070312 14 944.910156 14 C 949.839844 14 952.03125 11.601562 955.136719 8.300781 C 958.605469 4.601562 962.894531 0 971.113281 0 C 979.328125 0 983.621094 4.601562 987.089844 8.300781 C 990.195312 11.601562 992.476562 14 997.316406 14 C 1002.160156 14 1004.441406 11.601562 1007.539062 8.300781 C 1011.011719 4.601562 1015.300781 0 1023.519531 0 C 1031.738281 0 1036.03125 4.601562 1039.5 8.300781 C 1042.601562 11.601562 1044.890625 14 1049.730469 14 L 1049.730469 23 Z M 1050 23 "/>
</g>
</svg>
