<?xml version="1.0" encoding="UTF-8"?>
<svg xmlns="http://www.w3.org/2000/svg" xmlns:xlink="http://www.w3.org/1999/xlink" width="1150px" height="34px" viewBox="0 0 1150 34" version="1.1">
<g id="surface1">
<path style=" stroke:none;fill-rule:nonzero;fill:rgb(100%,100%,100%);fill-opacity:1;" d="M 1168.800781 0 C 1153.148438 0 1153.148438 14 1137.609375 14 C 1122.070312 14 1121.960938 0 1106.410156 0 C 1090.871094 0 1090.761719 14 1075.21875 14 C 1059.570312 14 1059.570312 0 1043.910156 0 C 1028.261719 0 1028.261719 14 1012.71875 14 C 997.066406 14 997.066406 0 981.523438 0 C 965.871094 0 965.871094 14 950.324219 14 C 934.78125 14 934.347656 0 918.804688 0 C 903.152344 0 903.152344 14 887.609375 14 C 872.066406 14 871.847656 0 856.304688 0 C 840.652344 0 840.652344 14 825.109375 14 C 809.457031 14 809.457031 0 793.804688 0 C 778.152344 0 778.152344 14 762.609375 14 C 746.957031 14 746.957031 0 731.414062 0 C 715.871094 0 715.652344 14 700 14 C 684.347656 14 684.347656 0 668.804688 0 C 653.152344 0 653.152344 14 637.609375 14 C 621.957031 14 621.957031 0 606.304688 0 C 590.652344 0 590.652344 14 575.109375 14 C 559.457031 14 559.457031 0 543.914062 0 C 528.261719 0 528.261719 14 512.71875 14 C 497.066406 14 497.066406 0 481.523438 0 C 465.871094 0 465.871094 14 450.21875 14 C 434.566406 14 434.566406 0 418.914062 0 C 403.261719 0 403.261719 14 387.609375 14 C 371.957031 14 371.957031 0 356.304688 0 C 340.652344 0 340.652344 14 325 14 C 309.347656 14 309.347656 0 293.695312 0 C 278.042969 0 278.042969 14 262.390625 14 C 246.738281 14 246.738281 0 231.085938 0 C 215.433594 0 215.433594 14 199.890625 14 C 184.238281 14 184.238281 0 168.585938 0 C 152.933594 0 152.933594 14 137.28125 14 C 121.628906 14 121.628906 0 105.976562 0 C 90.324219 0 90.324219 14 74.675781 14 C 59.023438 14 59.023438 0 43.371094 0 C 28.152344 0 28.152344 14 12.5 14 C -3.152344 14 -3.152344 0 -18.695312 0 C -34.238281 0 -34.347656 14 -50 14 L -50 34 L 1200 34 L 1200 14 C 1184.351562 14 1184.351562 0 1168.800781 0 Z M 1168.800781 0 "/>
</g>
</svg>
